{"glyphs":{"0":{"ha":833,"x_min":0,"x_max":0,"o":""},"1":{"ha":694,"x_min":69,"x_max":625,"o":"m 438 769 q 435 753 438 764 q 435 733 433 742 q 454 590 440 685 q 454 582 456 586 q 450 578 453 578 q 375 490 393 561 q 369 456 369 465 q 414 397 369 418 q 426 385 426 392 q 426 341 426 376 q 422 274 426 306 q 406 221 419 257 l 393 188 q 388 147 388 169 q 428 47 388 90 q 528 4 468 4 q 581 23 558 4 q 610 72 603 42 q 613 99 613 89 q 589 192 613 133 q 563 267 571 239 q 556 326 554 294 q 559 339 556 332 q 568 347 563 346 q 619 417 608 368 q 625 465 625 450 q 604 533 625 506 q 576 606 576 565 l 578 619 l 578 625 q 575 639 578 628 l 561 685 q 531 799 539 751 q 517 918 517 864 q 518 957 517 944 q 517 966 518 963 q 514 972 515 969 q 499 965 507 967 q 482 956 493 963 q 461 947 471 950 q 397 910 418 935 q 318 849 364 867 q 136 771 246 821 q 69 676 69 739 q 90 622 69 647 q 146 585 111 596 q 188 578 169 578 q 242 597 221 578 q 299 665 263 618 q 438 769 349 736 z "},"2":{"ha":807,"x_min":69,"x_max":738,"o":"m 653 747 q 629 851 651 804 q 569 919 607 897 q 429 961 499 961 q 358 950 396 961 q 258 880 303 935 q 214 763 214 825 q 224 710 214 735 q 257 666 233 683 q 307 649 281 649 q 339 656 322 649 q 365 674 351 661 q 389 699 378 686 q 393 713 392 704 q 392 726 394 721 q 383 756 383 742 q 411 800 383 785 q 449 813 429 808 q 463 814 453 814 q 509 799 488 814 q 540 763 531 785 q 547 729 547 744 q 535 681 547 708 q 505 628 524 656 q 479 589 486 600 l 461 561 q 446 546 453 550 q 426 546 439 542 q 409 549 418 549 q 397 549 400 549 q 292 485 342 542 q 274 432 274 463 q 276 403 274 413 q 310 363 286 369 q 311 351 311 361 q 300 322 308 342 q 285 282 290 300 q 210 193 260 219 q 192 188 203 188 q 171 201 179 188 q 136 225 158 225 q 124 224 128 225 q 75 182 83 217 q 69 138 69 161 q 113 42 69 79 q 196 7 151 7 q 222 10 214 7 l 354 49 q 454 68 421 68 q 514 57 481 68 q 643 29 588 29 q 729 81 706 29 q 738 117 738 100 q 719 161 738 142 q 617 217 671 217 q 503 183 567 217 q 399 157 454 157 q 338 165 369 157 q 322 181 322 167 q 325 192 322 188 l 371 289 q 404 311 381 311 q 417 310 413 311 q 433 308 422 308 q 454 310 447 308 q 524 356 490 318 q 563 431 557 393 l 564 446 q 544 488 564 474 q 542 494 543 489 q 543 503 542 500 q 585 564 572 547 q 653 747 650 644 z "},"3":{"ha":833,"x_min":0,"x_max":0,"o":""},"4":{"ha":833,"x_min":0,"x_max":0,"o":""},"5":{"ha":833,"x_min":0,"x_max":0,"o":""},"6":{"ha":833,"x_min":0,"x_max":0,"o":""},"7":{"ha":833,"x_min":0,"x_max":0,"o":""},"8":{"ha":833,"x_min":0,"x_max":0,"o":""},"9":{"ha":833,"x_min":0,"x_max":0,"o":""}," ":{"ha":597,"x_min":0,"x_max":0,"o":""},"A":{"ha":839,"x_min":68,"x_max":769,"o":"m 765 97 q 769 67 769 83 q 768 53 769 63 q 764 38 767 43 q 742 19 754 24 q 679 7 721 13 q 662 3 672 6 q 643 1 651 1 q 622 10 632 1 q 610 32 611 18 q 603 89 608 49 q 602 96 601 92 q 603 101 603 100 q 600 185 600 157 q 604 212 601 199 q 608 239 607 225 q 604 261 608 249 q 590 289 599 276 q 581 303 588 294 q 569 319 574 313 q 551 354 554 339 l 551 358 q 558 369 551 365 q 568 375 565 374 q 589 397 589 386 q 583 415 589 401 q 574 435 579 421 q 563 456 568 449 q 549 468 558 461 q 536 478 540 475 q 490 532 503 504 q 483 547 489 539 q 475 557 478 554 l 468 567 q 457 575 463 575 q 447 572 453 575 q 436 567 440 568 l 397 554 l 369 542 l 338 528 q 324 517 331 524 q 313 507 317 510 q 293 492 292 490 q 265 435 265 467 q 300 390 265 400 q 338 375 317 386 q 338 371 339 375 q 338 364 338 367 q 333 352 336 361 q 324 338 329 343 q 301 333 319 333 q 263 336 290 333 q 250 331 254 336 q 243 317 246 326 q 246 297 244 308 q 247 271 247 286 q 244 265 247 268 q 238 260 242 261 q 231 236 228 253 l 244 189 l 251 153 q 255 142 253 150 q 256 131 257 135 q 249 101 256 118 q 229 71 242 83 q 197 46 222 63 q 164 25 172 28 q 132 21 154 21 q 117 23 126 21 q 104 26 108 25 q 81 39 93 26 q 69 63 68 51 q 78 153 72 107 q 82 173 79 163 q 86 193 85 183 q 91 220 88 201 q 100 253 94 239 q 111 284 103 268 q 122 304 119 300 q 126 317 126 313 q 122 332 126 324 q 115 354 119 343 q 107 376 110 365 q 104 415 104 389 l 103 446 q 104 461 103 456 q 128 529 113 494 q 147 550 131 538 q 161 569 161 564 q 159 578 161 574 q 156 586 157 582 q 150 607 153 594 q 144 628 147 619 q 133 651 139 644 q 126 671 126 660 q 131 692 126 682 q 135 711 133 701 q 140 731 138 721 q 147 747 142 738 q 154 763 151 756 q 165 787 157 769 q 181 817 172 804 q 196 830 185 824 q 213 840 207 836 l 240 864 l 264 890 l 289 918 q 322 944 315 940 q 388 965 353 957 q 414 969 400 969 q 458 963 433 969 q 476 957 465 960 q 494 951 488 954 q 535 929 504 947 q 589 894 575 907 q 626 863 596 890 q 668 819 640 849 q 673 811 671 817 q 676 803 675 806 q 683 783 679 792 q 689 767 686 774 q 700 721 699 742 l 700 717 q 699 702 700 710 q 697 688 697 694 l 694 661 q 690 651 693 656 q 686 642 688 646 l 676 625 l 657 599 q 653 578 653 592 l 653 558 q 656 531 653 540 q 672 499 657 515 q 700 471 685 483 l 721 450 q 726 435 726 444 q 726 421 726 431 q 721 406 725 411 q 710 394 718 399 q 699 388 701 389 q 697 385 697 388 q 701 371 699 379 q 706 351 704 363 q 708 338 708 346 q 707 326 707 329 q 702 303 707 319 q 697 278 697 288 q 699 265 697 269 q 708 242 703 256 q 719 211 714 229 q 750 126 743 144 q 757 113 751 121 q 765 97 763 104 m 533 725 q 538 726 536 725 q 543 729 540 728 l 539 735 q 525 751 532 744 q 513 764 518 758 q 499 777 507 769 q 486 789 492 785 q 453 821 479 797 q 440 833 446 828 q 428 844 433 839 q 414 836 422 840 q 401 815 408 825 q 388 794 393 806 q 381 777 383 786 q 376 764 379 768 q 365 746 372 756 q 353 729 357 736 l 340 711 q 329 693 335 696 q 327 686 324 688 q 332 685 331 685 q 354 681 343 681 q 379 689 367 681 l 418 711 q 430 716 422 713 q 444 719 438 719 q 533 725 475 722 z "},"B":{"ha":779,"x_min":69,"x_max":710,"o":"m 464 357 q 464 355 464 356 q 463 354 464 354 l 469 354 q 479 333 479 351 l 479 331 q 468 308 479 319 q 461 292 464 304 q 465 283 461 286 q 471 283 468 281 q 485 292 476 286 q 501 299 494 297 q 508 302 504 301 q 514 301 513 303 q 515 294 515 300 q 512 278 515 288 q 504 267 508 269 q 475 242 493 260 q 446 213 446 213 q 430 201 439 207 q 413 188 421 194 q 382 167 390 174 q 365 158 376 164 q 344 144 353 151 q 331 111 331 136 q 330 99 331 107 q 332 85 329 90 q 361 43 344 61 q 382 26 368 31 q 435 19 413 19 q 469 24 453 19 q 514 39 489 29 q 544 50 540 49 q 588 72 569 61 q 603 81 593 75 q 618 92 613 88 q 628 99 622 96 q 638 106 633 103 q 641 108 639 107 q 647 111 643 110 l 647 113 l 672 144 q 686 175 682 163 q 706 238 700 217 q 707 252 707 243 q 707 265 707 261 q 708 276 707 272 l 710 290 q 706 304 706 299 q 704 344 706 331 q 697 376 703 354 q 693 399 697 392 q 681 423 688 410 q 668 450 674 436 q 624 489 654 478 q 597 493 610 493 q 558 486 581 493 q 526 476 536 479 q 508 472 519 474 q 483 464 497 469 l 475 465 q 476 472 475 471 l 499 507 q 508 519 503 511 q 518 531 513 528 q 536 535 526 533 q 556 539 546 536 q 579 548 571 543 q 593 563 588 553 l 607 582 q 619 597 611 588 q 631 614 626 607 q 650 661 646 636 q 651 675 651 665 q 647 708 651 679 q 628 776 639 742 q 626 789 626 782 q 624 799 626 796 q 590 849 610 829 q 526 910 569 874 q 506 920 519 915 q 486 928 492 925 q 459 937 475 931 q 432 946 443 943 q 400 949 413 949 l 368 951 l 297 954 q 271 958 285 956 q 242 961 257 960 q 219 965 228 964 q 203 965 210 965 q 193 968 199 965 q 185 972 188 971 l 182 972 q 172 972 179 972 q 161 961 164 971 q 156 956 160 958 q 151 953 153 954 l 126 928 q 115 913 117 918 l 115 907 l 117 838 q 106 756 111 785 q 95 723 103 740 q 85 701 88 706 q 79 675 79 690 q 85 654 79 660 l 103 626 l 114 597 q 129 558 125 572 q 136 503 136 536 q 132 428 136 465 l 129 396 q 126 364 129 386 q 111 301 124 346 q 103 271 103 274 q 98 251 100 261 q 93 231 96 240 q 85 206 90 219 q 78 186 79 193 q 69 125 69 147 q 71 104 69 111 q 72 88 71 100 q 78 69 74 76 q 93 46 83 58 q 108 26 103 33 q 121 18 117 18 q 135 13 128 15 q 149 8 142 11 q 181 3 171 3 q 228 19 206 3 q 243 35 235 25 q 257 51 251 46 q 281 88 274 71 q 285 124 288 104 q 275 178 282 154 q 265 201 272 188 q 253 224 257 214 q 238 308 233 265 l 238 321 q 239 335 239 326 q 240 349 239 343 q 249 374 249 361 q 238 399 249 388 q 229 421 229 407 q 233 440 229 432 q 241 456 236 447 q 250 476 246 465 q 258 528 257 522 q 259 542 258 533 q 258 560 260 550 q 251 579 256 568 q 244 599 246 590 q 238 639 238 619 q 246 683 238 656 q 248 695 246 689 q 251 706 250 701 q 256 721 253 711 q 260 739 258 731 q 261 754 261 744 l 260 785 q 258 802 260 794 q 257 818 257 810 q 254 825 254 819 l 260 822 q 282 805 268 817 q 308 790 296 793 q 367 776 335 781 q 408 769 400 771 q 440 765 417 767 q 474 757 463 763 q 517 725 492 750 q 519 699 519 719 q 493 644 519 665 l 467 624 q 435 585 451 613 q 419 560 431 576 q 399 533 411 550 q 378 507 388 517 q 356 490 369 497 q 339 479 343 482 q 322 468 331 474 q 303 454 313 463 q 267 428 278 438 q 258 417 258 424 q 258 411 257 414 q 263 407 260 408 q 297 396 285 397 q 329 390 310 393 q 361 385 349 388 l 444 369 q 455 363 450 367 q 464 357 460 360 z "},"C":{"ha":785,"x_min":71,"x_max":729,"o":"m 443 168 q 406 177 419 169 q 385 201 392 185 q 381 222 381 210 q 372 235 381 232 q 351 236 364 239 q 338 235 347 235 q 307 251 319 235 q 288 329 283 285 q 292 375 292 354 q 290 391 292 383 q 289 407 289 399 q 271 465 289 443 q 224 507 260 478 l 221 515 l 247 563 q 255 599 256 578 q 254 628 254 621 q 249 655 253 638 q 243 685 244 672 q 242 714 242 694 q 244 778 242 739 q 257 806 246 797 q 290 826 268 815 q 338 835 306 832 q 386 842 365 840 q 400 843 390 843 q 413 840 410 843 q 446 807 426 832 q 475 747 469 768 q 481 718 481 731 q 472 689 481 704 q 446 631 465 676 q 449 619 446 622 q 489 601 478 604 q 504 600 493 600 q 529 603 513 600 q 610 622 543 606 q 619 626 615 625 q 626 626 624 626 q 649 656 643 632 q 654 676 650 663 q 658 699 658 689 q 653 735 658 715 q 646 760 647 754 q 635 796 640 785 q 628 802 633 799 q 619 808 624 806 q 601 824 610 815 q 582 842 592 833 l 522 899 l 474 944 q 449 958 464 951 q 426 967 433 964 q 413 969 419 972 q 390 968 400 969 q 374 965 381 967 q 342 964 356 965 q 319 961 329 963 q 303 962 313 961 q 289 961 294 963 q 239 943 272 957 q 208 928 229 938 q 172 908 186 919 q 129 856 154 894 q 109 827 122 844 q 88 794 96 810 q 75 761 79 778 q 71 724 71 740 q 94 663 71 686 q 122 646 111 646 q 143 638 138 643 q 150 617 149 632 q 147 587 153 597 q 122 571 140 576 q 89 539 90 563 q 88 524 89 533 q 89 508 88 515 q 101 458 92 472 q 117 429 113 444 q 125 399 122 414 q 129 375 128 383 q 134 350 132 365 q 138 326 136 335 l 146 279 q 171 190 151 247 q 200 117 182 156 q 225 65 214 81 q 276 17 247 39 q 306 3 289 6 q 347 1 324 0 q 372 3 361 1 q 390 6 382 4 q 419 7 401 7 q 449 8 438 7 q 504 24 478 11 q 522 35 511 26 q 539 47 533 44 q 567 56 550 51 q 593 65 583 61 q 644 88 626 78 q 675 118 663 97 q 714 178 699 151 q 728 219 726 203 q 729 235 729 225 q 726 260 729 243 q 722 272 726 265 q 715 282 718 278 q 708 296 713 286 q 697 311 703 306 q 668 340 682 332 q 642 349 657 346 q 621 354 628 353 q 610 357 615 357 q 597 354 606 357 l 574 340 q 540 328 557 332 q 513 319 528 324 q 481 310 499 314 q 457 285 456 301 q 461 270 457 278 q 471 258 465 263 q 507 206 500 239 q 508 200 508 203 q 504 197 507 197 q 479 182 494 190 l 443 168 z "},"D":{"ha":790,"x_min":83,"x_max":707,"o":"m 707 574 q 671 649 707 613 q 663 673 671 657 q 646 699 654 689 q 628 722 639 706 q 608 749 617 739 q 571 786 608 749 q 557 806 563 793 q 546 824 551 818 q 508 874 524 844 q 498 894 508 883 q 483 911 488 906 q 452 932 474 921 q 421 949 431 943 q 388 958 404 956 q 346 960 371 960 q 329 965 340 965 q 306 963 319 965 q 283 960 292 960 q 221 974 246 960 l 133 974 q 121 972 124 974 q 108 960 118 971 l 108 924 l 108 911 q 99 899 106 908 q 88 881 92 890 q 83 861 83 872 q 85 842 83 849 q 97 836 88 836 q 115 834 108 836 q 121 824 121 832 q 143 791 131 814 q 160 761 156 768 q 157 749 160 757 q 154 736 154 740 q 160 724 154 729 l 160 636 q 164 624 164 631 q 158 603 164 614 q 146 586 153 593 q 135 570 138 578 q 133 549 133 563 q 131 476 133 503 q 121 424 129 450 q 115 381 121 411 q 108 338 108 356 q 97 288 108 299 l 97 188 q 99 145 97 163 q 108 113 101 128 l 108 88 q 115 69 108 82 q 121 50 121 57 q 134 32 128 44 q 146 13 140 19 q 196 0 160 0 q 243 4 224 0 q 271 25 263 8 l 296 50 l 296 75 q 294 107 296 97 q 283 125 292 117 q 276 160 283 143 q 258 188 268 178 l 258 250 q 252 262 258 256 q 246 275 246 268 q 249 284 246 281 q 251 290 251 288 q 246 299 251 293 l 246 375 q 252 399 246 381 q 258 424 258 417 q 271 449 265 432 q 283 474 276 468 l 283 500 q 296 549 296 511 q 303 581 296 564 q 308 611 308 597 l 308 661 l 308 686 q 315 718 308 701 q 321 749 321 735 l 321 799 l 321 799 q 365 774 328 796 q 408 749 379 765 q 448 726 433 736 q 471 699 463 715 q 492 667 481 689 q 508 636 503 646 q 529 605 518 626 q 546 574 540 583 q 544 542 546 551 q 532 524 542 532 l 521 524 q 499 486 499 514 q 508 463 499 469 q 521 429 515 449 q 532 400 525 413 q 535 390 532 394 q 538 383 538 386 q 532 375 538 381 q 521 324 532 350 q 502 300 514 317 q 483 275 490 283 q 481 256 483 263 q 471 250 479 250 q 465 238 471 240 q 446 236 458 236 q 425 238 433 236 q 408 250 417 240 q 383 254 394 254 q 346 213 346 254 q 348 171 346 188 q 358 136 350 154 l 358 100 l 358 63 q 371 38 371 50 q 388 25 378 31 q 407 19 399 19 q 421 25 415 19 q 471 44 454 38 q 521 63 518 63 q 533 69 526 63 q 546 75 539 75 q 571 100 557 88 q 578 117 571 110 q 594 125 586 125 q 633 175 611 156 q 657 250 657 219 q 669 256 667 250 q 671 275 671 263 l 671 299 q 681 328 675 308 q 685 343 682 331 q 696 361 689 356 q 689 397 696 376 q 682 424 682 418 q 671 449 682 438 q 685 480 675 457 q 696 511 696 503 q 701 543 696 524 q 707 574 707 560 z "},"E":{"ha":683,"x_min":56,"x_max":642,"o":"m 282 963 q 267 961 276 961 q 254 958 261 960 q 242 956 247 957 q 222 947 232 953 q 207 938 213 940 q 188 931 197 936 l 144 904 q 83 872 111 886 q 69 859 72 865 q 68 840 65 853 q 72 818 72 831 q 65 790 72 807 q 56 754 56 775 q 58 735 56 742 q 81 674 65 710 q 94 649 88 660 q 104 629 100 638 q 113 614 111 615 q 132 583 118 600 q 175 539 160 553 q 190 528 181 533 q 201 517 199 522 q 211 494 207 508 q 218 472 215 479 q 222 460 219 469 q 228 444 224 450 q 240 433 232 438 q 289 403 274 414 q 290 401 290 403 q 290 399 290 400 q 276 390 285 396 q 260 383 267 385 l 207 361 q 197 356 203 360 q 186 351 190 353 q 159 343 169 349 q 144 324 149 338 q 129 246 138 294 q 122 169 124 197 q 121 147 121 163 q 124 132 121 136 q 163 86 133 115 q 171 81 165 83 q 181 76 176 79 q 197 67 188 72 q 217 53 206 61 q 272 17 260 22 q 310 3 292 0 q 368 10 354 10 l 385 8 q 396 10 393 8 q 454 40 435 29 l 496 63 q 536 81 535 79 q 592 121 575 106 q 619 164 614 143 q 625 199 625 179 q 625 222 625 218 l 625 229 q 622 258 625 239 l 622 290 l 625 315 q 633 325 625 326 q 638 328 635 325 q 642 332 640 331 q 631 345 639 336 q 615 360 624 354 q 567 374 586 371 q 550 376 556 376 q 529 368 538 376 l 499 338 q 481 299 481 322 q 485 271 481 289 q 489 244 489 253 q 474 200 489 215 q 440 169 461 186 q 401 144 407 147 q 376 133 390 138 q 357 126 363 128 q 347 125 351 124 q 334 126 342 125 q 321 126 326 128 q 276 160 278 124 q 275 172 275 164 l 276 196 q 279 219 276 211 q 292 236 282 228 q 310 253 300 242 q 329 274 321 265 q 356 325 351 294 q 376 360 360 346 q 401 378 388 367 q 421 394 415 390 q 439 412 429 401 q 454 428 449 422 q 478 456 472 446 q 492 521 496 483 q 488 526 492 524 q 482 529 483 528 q 480 530 482 531 q 476 528 478 529 q 461 516 471 524 q 444 504 451 508 q 417 499 436 499 q 378 504 403 499 q 356 515 363 507 q 344 529 350 524 q 333 540 338 535 q 320 564 329 547 q 303 590 311 581 q 271 642 281 618 q 264 664 267 650 q 258 685 261 678 q 253 728 250 701 q 260 749 254 740 q 278 769 265 757 q 293 790 282 774 q 295 794 293 790 q 304 794 297 799 q 308 793 306 793 q 313 792 311 793 l 358 767 q 367 757 364 764 q 374 728 372 738 q 383 665 378 690 q 392 658 383 661 q 399 663 397 658 q 401 665 401 663 q 417 669 407 667 q 436 672 428 672 l 443 672 q 472 669 453 672 l 476 669 q 488 681 490 669 q 482 717 485 703 q 472 751 475 743 q 453 804 469 763 q 433 846 447 818 q 420 869 426 861 q 403 882 414 878 q 392 894 393 885 q 389 906 390 903 q 388 915 389 908 q 383 926 386 922 q 365 940 378 931 q 342 954 353 950 q 310 960 329 958 q 282 963 292 961 z "},"F":{"ha":833,"x_min":75,"x_max":771,"o":"m 344 208 q 361 160 342 182 q 385 131 368 150 q 408 101 401 111 q 428 72 418 89 q 443 44 438 54 q 492 8 461 14 q 515 6 508 6 q 544 13 528 6 q 576 32 553 15 q 586 58 586 43 q 583 76 586 65 q 567 125 581 85 q 544 169 561 142 q 535 192 536 188 q 524 220 529 203 q 514 249 518 238 q 507 266 513 254 q 500 289 501 278 q 499 303 499 293 q 513 346 499 325 q 524 392 524 364 q 521 422 524 413 q 517 444 521 428 l 482 510 q 481 517 481 513 q 483 524 481 521 q 490 528 486 526 q 524 536 513 536 l 558 535 q 603 533 589 532 q 660 547 638 538 q 685 566 672 553 q 704 585 699 579 l 714 592 q 722 603 718 596 q 728 613 725 610 q 729 617 731 614 q 728 622 728 621 q 717 624 724 622 q 708 622 711 625 q 656 608 688 608 q 599 614 640 608 q 531 631 557 618 q 496 640 514 640 q 474 642 489 642 q 424 639 457 642 q 417 641 421 639 q 413 644 414 643 l 383 706 q 381 717 382 710 q 379 728 379 724 q 373 743 378 732 q 368 764 368 754 q 372 782 368 774 q 388 794 376 788 q 406 800 400 801 q 454 790 421 799 l 510 778 q 526 777 515 778 q 546 772 538 776 q 599 744 569 765 q 624 738 610 738 q 657 750 644 738 q 683 772 663 756 q 694 777 688 774 q 704 785 700 781 q 743 829 738 822 l 767 860 q 769 863 767 861 q 771 865 771 864 q 767 882 771 876 q 758 897 764 896 q 751 899 757 899 l 736 897 q 728 896 735 896 q 715 897 722 896 q 700 896 708 897 q 671 890 688 890 q 635 900 650 890 q 613 910 626 906 q 572 932 593 915 q 531 951 554 956 q 514 947 524 950 q 496 942 504 943 q 472 937 486 939 q 450 933 458 935 q 408 938 446 933 q 361 946 364 946 l 314 954 q 292 959 303 957 q 269 964 281 961 l 233 971 l 211 972 q 185 970 197 972 q 158 968 172 968 q 96 956 119 968 q 81 941 86 950 q 75 922 75 932 q 79 907 75 914 q 99 885 86 899 q 122 863 113 872 q 142 842 131 854 q 161 822 154 831 q 169 812 167 817 q 167 800 171 807 q 163 789 163 794 l 163 772 q 176 736 171 747 q 189 713 181 726 q 203 689 197 700 q 207 679 207 685 q 201 667 207 672 l 199 661 q 205 638 199 647 q 220 619 211 628 q 233 604 229 610 q 250 590 240 597 q 265 578 260 583 q 269 569 269 574 q 261 558 269 563 q 258 556 260 556 q 256 554 257 556 q 247 542 253 550 q 239 528 240 533 q 238 514 238 524 q 247 476 238 499 q 282 403 263 440 l 313 343 q 336 279 329 313 q 341 238 339 256 q 344 208 343 221 z "},"G":{"ha":875,"x_min":69,"x_max":847,"o":"m 422 0 q 440 2 435 0 q 446 13 446 4 q 477 23 463 13 q 508 50 492 33 q 519 73 514 56 q 532 97 525 90 q 538 117 532 103 q 543 147 543 132 q 561 170 550 154 q 579 194 572 186 q 585 213 579 201 q 592 231 592 225 l 592 279 l 592 304 q 605 310 599 304 q 617 315 611 315 l 653 315 q 680 327 665 321 q 703 342 694 333 q 720 344 714 342 q 726 353 726 346 q 774 389 756 368 q 800 394 790 389 q 824 413 810 400 q 835 437 829 418 q 847 463 840 456 l 847 474 q 841 492 847 481 q 835 510 835 504 q 824 521 826 519 q 811 522 821 522 q 806 510 811 515 q 800 499 800 504 q 781 492 793 499 q 763 486 768 486 q 726 463 763 463 q 706 460 714 463 q 689 450 699 458 q 667 446 676 450 q 647 435 657 442 q 629 425 636 429 q 603 415 619 415 q 568 425 590 415 q 543 439 556 439 q 508 463 519 463 q 496 472 500 469 q 482 474 492 474 q 453 486 472 479 q 422 499 446 488 q 413 503 418 503 q 402 498 407 503 q 397 486 397 493 q 395 466 397 474 q 385 450 393 458 q 388 427 385 432 q 411 413 392 422 q 428 401 417 407 q 446 389 440 396 q 457 388 456 389 q 458 376 458 386 q 469 361 467 369 q 471 342 471 353 q 469 310 471 319 q 458 292 467 300 q 446 273 451 285 q 435 256 440 261 q 422 237 428 250 q 411 218 417 224 q 404 201 411 213 q 397 182 397 189 q 390 170 397 175 q 374 165 383 165 q 361 171 367 165 q 338 207 338 192 q 327 239 329 222 q 325 279 325 256 l 325 315 q 319 335 325 322 q 314 353 314 347 q 307 365 314 360 q 300 376 300 371 q 289 389 290 386 q 288 401 288 392 l 288 425 q 289 438 288 436 q 300 439 290 439 q 314 450 314 439 q 331 452 325 450 q 338 463 338 454 q 331 480 338 468 q 325 499 325 492 q 319 517 325 504 q 314 536 314 529 q 307 560 307 542 q 300 583 307 578 q 290 632 292 607 q 288 693 288 657 q 294 724 288 707 q 300 754 300 743 q 338 790 300 771 l 349 790 l 349 790 l 374 790 l 435 790 l 471 790 q 519 765 497 790 q 536 751 531 760 q 546 729 542 743 q 556 704 550 715 l 556 681 l 556 644 q 579 619 568 619 q 599 613 586 619 q 617 607 611 607 l 665 607 q 689 619 676 607 l 714 619 q 726 644 726 633 q 738 651 732 644 q 750 657 743 657 q 740 690 750 676 q 714 704 731 704 q 696 710 708 704 q 676 717 683 717 q 657 751 664 742 l 640 778 q 635 797 640 785 q 629 814 629 808 q 617 863 617 828 q 606 880 613 868 q 592 899 600 892 q 567 927 583 918 q 532 936 551 936 q 499 949 518 943 q 471 960 482 954 l 435 960 q 417 951 426 951 q 397 960 407 951 q 369 966 383 960 q 349 972 354 972 l 276 972 q 258 960 269 965 q 240 949 246 954 q 190 911 210 932 q 172 885 182 901 q 154 863 161 869 q 143 833 147 850 q 131 801 136 813 q 119 772 125 788 q 106 742 114 756 q 99 716 106 738 q 93 681 93 694 q 103 658 93 672 q 119 633 113 644 l 119 596 q 106 590 113 596 q 93 583 99 583 q 82 574 89 578 q 72 564 75 569 q 69 547 69 558 q 76 529 69 542 q 82 510 82 517 q 91 494 89 503 q 93 474 93 486 q 106 450 93 463 l 119 450 l 131 439 q 137 419 131 432 q 143 401 143 407 l 143 376 l 143 342 l 143 304 l 143 256 q 152 227 150 239 q 154 194 154 215 q 166 177 160 189 q 179 158 172 165 l 179 133 l 190 121 l 217 97 l 217 97 q 228 86 225 88 q 240 85 231 85 q 263 57 246 74 q 288 24 282 38 q 325 13 300 13 q 341 2 333 4 q 361 0 349 0 l 411 0 l 422 0 z "},"H":{"ha":800,"x_min":67,"x_max":731,"o":"m 643 0 q 653 13 649 6 q 665 21 658 21 q 688 54 688 43 q 692 71 688 60 q 697 88 697 82 q 703 119 697 100 q 708 142 708 138 q 701 188 708 164 q 697 218 697 217 l 688 229 l 688 272 q 697 304 688 294 q 699 323 697 315 q 708 339 701 331 l 708 371 q 719 387 714 376 q 731 403 725 397 q 719 447 731 436 q 708 468 719 457 q 698 493 703 481 q 688 513 693 506 q 665 544 688 522 q 658 575 665 560 q 643 599 651 590 q 641 617 643 610 q 632 631 639 624 l 632 643 q 638 654 632 649 q 643 664 643 660 l 643 697 q 649 708 649 701 q 646 720 649 713 q 643 731 643 728 l 643 763 l 643 828 q 633 844 635 836 q 632 872 632 853 l 632 925 q 622 938 632 938 q 593 950 614 946 q 567 958 582 951 q 550 957 558 958 q 535 949 542 956 q 501 904 518 932 q 499 886 501 893 q 490 872 497 879 l 490 828 q 501 785 501 807 q 508 757 501 774 q 514 731 514 740 q 501 713 507 725 q 490 697 496 701 q 458 654 476 671 q 438 636 446 642 q 414 631 429 631 q 392 626 408 631 q 372 621 376 621 l 328 621 q 296 643 313 621 l 283 643 q 272 654 283 654 q 263 662 268 658 q 254 671 257 665 q 251 686 251 676 q 246 703 251 690 q 240 731 240 717 l 240 772 q 246 792 240 778 q 251 817 251 806 l 251 861 q 249 897 251 882 q 240 925 247 911 q 235 943 240 932 q 229 958 229 954 l 196 958 q 182 967 189 965 q 164 969 175 969 q 134 967 144 969 q 110 958 124 965 q 94 953 100 958 q 85 940 89 949 q 78 925 82 931 q 76 897 78 907 q 67 872 74 886 q 78 817 67 839 l 99 796 l 99 772 q 108 753 106 765 q 110 719 110 740 q 104 702 110 713 q 99 686 99 692 l 99 654 q 94 635 94 644 q 110 589 94 617 q 114 578 114 583 q 110 567 114 574 q 104 556 110 561 q 99 544 99 550 q 88 528 93 539 q 78 513 82 517 l 78 490 q 69 474 69 482 q 78 457 69 465 q 86 456 85 457 q 88 447 88 454 l 119 414 q 131 392 131 403 q 141 378 139 385 q 143 360 143 371 q 154 315 154 349 l 154 272 l 154 218 q 149 201 154 213 q 143 185 143 190 q 149 174 143 179 q 154 163 154 168 q 164 108 154 131 l 164 97 q 160 81 160 89 q 167 60 160 69 q 186 44 174 50 q 219 11 201 25 q 231 6 224 6 q 240 11 235 6 q 262 16 246 11 q 283 21 278 21 q 304 24 300 21 q 317 44 308 26 l 317 65 q 326 76 324 72 q 328 88 328 79 q 319 101 321 94 q 317 121 317 108 q 306 147 311 132 q 296 174 301 161 l 296 196 q 285 212 288 203 q 283 239 283 221 q 278 256 283 244 q 272 272 272 268 q 263 294 263 283 q 254 326 254 311 q 263 349 254 343 q 267 365 263 354 q 272 381 272 376 q 271 416 272 403 q 263 436 269 429 l 263 457 l 263 490 l 272 490 q 279 499 272 499 q 296 490 288 499 l 338 490 q 356 488 349 490 q 372 479 364 486 l 414 479 q 431 481 425 479 q 438 490 438 483 q 468 496 449 490 q 501 501 490 501 q 534 493 519 501 q 556 468 549 485 q 567 440 561 457 q 578 414 575 419 q 587 383 585 399 q 589 339 589 368 l 589 272 q 580 257 582 265 q 578 229 578 249 l 578 207 q 567 163 578 174 q 558 125 567 146 q 546 97 549 104 q 535 54 546 76 l 535 44 l 556 21 q 581 10 560 19 q 622 0 603 0 l 643 0 z "},"I":{"ha":443,"x_min":69,"x_max":374,"o":"m 186 111 q 211 75 211 89 q 231 51 219 58 q 249 38 243 43 q 263 27 253 33 q 274 13 274 21 q 290 2 282 4 q 311 0 299 0 q 330 2 324 0 q 336 13 336 4 l 349 13 q 363 23 353 17 q 374 38 374 29 l 374 75 l 374 125 q 361 150 374 138 l 361 174 q 355 193 361 181 q 349 213 349 206 l 349 225 l 349 250 l 349 336 l 349 399 q 347 419 349 411 q 336 436 344 428 l 336 449 q 330 478 336 464 q 324 499 324 493 l 324 524 l 324 524 l 336 536 q 354 567 354 554 q 349 586 354 576 l 349 611 q 335 617 342 611 q 324 622 329 622 l 311 636 q 283 656 292 646 q 274 685 274 667 q 272 699 274 696 q 261 711 271 701 l 261 774 q 249 822 261 810 l 249 847 q 247 869 249 861 q 236 885 244 876 l 236 897 q 242 910 236 904 q 249 922 249 917 q 235 945 240 931 q 224 972 231 960 l 199 972 l 161 972 l 124 972 l 111 960 q 93 958 100 960 q 86 947 86 956 q 74 920 79 933 q 69 894 69 907 q 75 872 69 882 q 86 836 75 847 q 89 813 86 825 q 93 797 92 801 q 100 760 100 776 q 113 732 104 754 q 124 699 118 710 l 124 674 l 124 636 q 135 628 135 636 q 124 611 135 619 q 117 599 124 601 q 100 597 111 597 q 78 585 82 589 q 75 561 75 581 l 75 536 l 75 511 l 75 474 l 86 461 q 99 434 86 444 q 124 424 113 424 l 138 424 q 143 406 138 418 q 149 386 149 393 q 155 374 149 381 q 161 361 161 368 q 155 343 161 356 q 149 324 149 331 q 155 306 149 318 q 161 288 161 293 l 161 261 q 167 231 161 250 q 174 199 174 214 q 180 179 174 194 q 186 150 186 164 l 186 111 z "},"J":{"ha":742,"x_min":69,"x_max":674,"o":"m 274 278 q 289 269 288 269 q 301 268 292 268 q 300 275 301 271 q 297 281 299 279 l 265 314 q 254 344 250 326 q 271 376 257 351 q 282 413 282 401 q 276 431 282 424 q 214 463 246 469 q 175 456 200 461 q 149 446 160 454 q 126 422 139 438 q 111 399 121 410 q 69 282 69 351 q 74 240 69 264 q 79 208 78 217 q 86 172 85 182 q 93 157 89 160 l 161 113 q 179 102 168 108 q 197 89 190 96 q 225 65 203 85 q 271 33 247 44 q 299 19 278 29 q 340 8 321 8 q 364 13 351 8 q 388 16 374 15 q 410 17 403 17 l 501 26 q 569 67 536 28 q 628 179 614 117 q 642 324 643 242 q 635 367 642 342 q 625 404 628 392 q 625 410 624 407 q 626 417 626 414 q 632 433 628 424 q 635 450 636 443 l 631 479 q 621 567 621 531 q 632 614 621 601 q 672 725 665 664 q 667 752 674 740 q 647 781 661 764 q 626 810 632 799 q 607 823 613 814 q 601 844 601 832 l 603 869 q 604 885 604 875 q 589 922 604 907 q 571 946 576 935 q 542 964 563 961 q 525 965 536 965 q 464 936 489 965 l 449 919 q 435 881 432 907 q 433 861 438 867 q 413 799 413 833 q 414 778 413 785 l 414 774 q 399 754 414 761 q 368 717 368 742 l 371 700 q 396 640 378 667 q 443 581 414 613 q 460 543 463 563 q 458 525 458 538 q 461 504 458 511 q 469 452 468 481 q 471 418 471 424 q 472 383 471 394 q 468 371 472 378 q 460 356 464 364 q 451 339 456 349 q 446 322 449 333 q 432 307 443 311 q 428 293 428 306 l 443 247 q 446 228 446 240 q 421 181 446 197 q 413 174 418 178 q 404 165 407 169 q 357 138 383 139 q 338 136 350 136 q 283 154 304 136 q 263 207 263 172 q 267 245 263 224 q 274 278 272 267 z "},"K":{"ha":872,"x_min":69,"x_max":821,"o":"m 156 579 q 113 568 128 574 q 89 559 97 564 q 76 542 81 554 q 69 506 69 528 q 83 456 69 479 q 119 425 96 433 q 156 368 153 411 q 154 288 156 314 l 153 206 q 151 184 153 193 q 149 168 150 175 q 143 125 143 140 q 146 100 143 108 l 146 99 q 140 86 146 94 q 138 68 138 81 q 150 33 138 49 q 179 21 163 18 q 276 43 221 26 q 294 63 289 44 q 301 91 297 72 q 313 124 306 110 q 320 172 321 144 q 319 213 319 200 q 311 269 319 231 q 304 306 306 290 q 301 332 301 322 q 308 358 301 350 q 328 375 314 368 q 354 383 342 382 q 422 372 378 386 q 467 353 443 365 q 504 336 492 342 q 569 297 547 314 q 600 250 596 274 q 603 215 603 228 q 592 151 603 179 q 571 67 571 100 l 572 49 q 579 22 575 28 q 603 10 583 15 q 658 3 635 3 q 726 13 688 3 q 755 32 744 18 q 765 64 765 46 q 764 76 765 72 l 764 82 q 768 96 764 92 q 776 117 776 107 q 771 133 776 126 q 753 156 765 142 q 733 181 742 171 q 728 190 732 183 q 726 203 725 197 q 739 260 732 242 q 743 286 743 272 q 735 324 743 303 q 719 363 728 344 q 644 436 693 414 q 583 465 606 456 l 606 474 q 649 497 633 486 q 676 524 665 507 q 713 585 690 543 l 729 617 l 749 656 q 759 672 751 660 q 771 697 767 685 q 775 719 775 708 q 774 732 775 728 l 774 733 q 778 743 774 738 q 783 750 782 749 q 797 782 797 767 q 793 799 797 790 q 789 811 792 801 q 782 828 786 821 q 778 838 778 835 q 788 853 778 843 l 808 876 q 821 911 821 896 q 794 951 821 936 q 749 963 778 963 q 708 956 728 963 q 678 935 689 949 q 649 889 663 915 q 633 856 636 863 q 621 805 624 835 q 617 763 618 775 q 601 704 613 731 q 565 629 590 678 q 530 582 551 603 q 476 538 508 561 q 447 529 463 526 q 346 535 381 532 l 294 538 q 290 583 290 561 q 296 646 290 604 q 317 714 300 669 q 335 770 329 749 q 340 815 340 792 q 338 867 340 849 q 326 903 336 885 q 310 926 319 915 q 290 942 300 938 q 251 950 265 950 q 218 939 233 950 q 197 928 208 932 q 161 901 172 921 q 146 851 150 882 q 149 810 143 831 q 157 782 156 789 q 165 725 165 760 q 163 667 165 706 q 156 579 161 642 z "},"L":{"ha":683,"x_min":63,"x_max":649,"o":"m 63 893 q 65 861 63 871 q 74 843 67 851 q 86 807 74 829 q 93 792 88 804 q 99 769 99 781 q 116 746 108 761 q 124 721 124 731 q 172 600 147 672 q 181 567 179 583 q 183 526 183 550 q 172 513 183 513 q 167 524 172 524 q 160 513 160 524 q 153 494 160 508 q 147 465 147 479 l 147 428 l 147 392 q 159 370 153 382 q 169 350 165 358 q 172 331 172 342 q 181 298 179 314 q 183 257 183 282 q 194 226 194 238 q 183 194 194 214 q 176 171 183 186 q 160 147 168 156 q 153 117 160 132 q 147 99 147 103 q 136 36 136 74 q 131 26 131 32 q 135 16 131 21 q 147 11 140 11 q 173 6 153 11 q 208 0 193 0 q 233 8 218 0 q 257 25 249 15 q 285 37 271 32 q 314 42 299 42 q 343 36 328 42 l 404 36 l 465 36 l 526 36 l 539 36 l 575 36 q 597 38 589 36 q 613 49 604 40 q 626 55 619 49 q 638 61 632 61 q 643 79 638 67 q 649 99 649 92 q 633 136 640 117 q 625 171 625 156 q 621 211 625 194 q 600 244 617 228 q 592 247 596 244 q 585 250 588 250 q 575 244 581 250 q 501 208 558 208 q 440 194 478 194 l 356 194 l 343 194 l 343 244 q 345 265 343 257 q 356 282 347 272 q 376 326 376 303 q 367 367 376 340 q 350 390 360 374 q 341 402 346 396 q 331 415 336 408 l 331 489 l 331 513 q 343 526 343 513 l 343 575 l 343 624 l 343 660 q 341 701 343 685 q 331 733 339 718 q 313 759 322 742 q 294 794 303 776 q 285 810 289 800 q 279 833 282 821 q 271 868 276 850 q 269 909 271 893 q 257 942 267 925 q 238 971 257 971 q 221 967 232 971 q 189 964 206 967 q 165 960 172 961 q 111 953 135 953 q 94 946 101 953 q 88 929 88 939 q 70 916 78 929 q 63 893 63 903 z "},"M":{"ha":1201,"x_min":69,"x_max":1133,"o":"m 1096 461 q 1101 467 1101 467 l 1101 522 q 1103 564 1101 550 l 1103 567 q 1099 585 1103 575 q 1090 596 1096 594 q 1082 599 1088 597 q 1074 605 1076 601 q 1075 615 1072 608 q 1074 618 1075 617 q 1072 622 1072 619 q 1063 651 1063 642 l 1063 689 q 1063 706 1063 696 q 1063 729 1064 715 q 1061 753 1063 740 q 1060 779 1060 767 q 1058 843 1058 800 l 1056 874 l 1053 932 q 1028 964 1050 960 l 1024 964 q 996 957 1010 964 q 980 946 989 953 q 965 935 971 939 l 922 899 q 906 883 915 892 q 886 865 897 875 q 865 849 881 860 q 843 829 850 838 q 813 786 829 811 q 792 751 797 761 l 781 726 q 760 683 763 690 q 732 621 749 663 l 719 585 q 706 549 713 565 q 689 517 699 531 q 683 513 688 514 q 676 513 679 511 q 664 525 668 517 q 658 542 660 533 q 654 553 656 550 l 632 628 q 630 633 631 629 q 628 638 629 636 l 575 701 q 514 763 556 724 q 481 793 489 788 q 418 831 457 810 q 389 851 389 851 q 377 865 382 858 q 367 878 372 872 l 336 914 q 308 938 338 913 l 281 964 q 263 965 272 976 q 248 955 258 957 q 233 951 238 953 q 220 948 229 950 q 207 942 211 946 q 188 904 197 932 q 181 858 183 893 l 178 819 q 175 779 178 807 q 172 753 174 769 q 169 726 169 738 q 168 688 168 714 l 169 665 q 168 619 169 633 q 166 609 168 614 q 160 601 164 604 q 147 599 156 599 q 124 608 136 599 q 111 611 115 611 q 92 605 100 611 q 82 589 83 599 q 76 536 79 556 l 71 503 q 69 489 69 497 q 92 460 69 468 q 131 453 101 456 q 144 438 147 453 q 132 364 139 388 q 123 338 129 353 q 114 313 117 322 q 96 263 107 296 l 83 210 q 75 176 81 197 q 69 139 69 154 l 71 126 q 83 72 75 94 q 110 33 90 50 q 182 3 143 7 q 211 2 199 1 q 233 3 224 3 q 254 11 244 4 q 282 29 276 21 q 308 69 294 42 q 322 122 322 92 q 315 172 324 146 q 306 201 307 197 q 303 228 303 210 q 304 250 303 242 q 307 269 307 261 q 301 286 307 279 l 301 296 l 306 308 q 307 339 306 329 q 310 386 310 369 q 310 408 310 392 q 318 435 311 424 q 324 456 324 444 q 326 475 325 465 q 329 494 328 485 q 331 514 331 501 q 322 553 331 535 q 320 558 321 554 q 318 563 319 561 q 308 580 314 568 q 297 597 303 592 q 283 618 288 607 q 275 650 279 629 l 272 675 l 271 738 q 271 740 269 739 q 272 742 272 740 q 275 738 275 739 q 281 724 278 732 q 286 711 283 715 q 305 696 296 703 q 324 681 314 689 q 335 674 328 678 q 344 665 342 669 q 371 629 361 646 q 394 596 386 614 q 409 571 400 586 q 426 546 418 556 q 444 530 432 539 q 463 515 457 521 l 493 482 q 569 443 515 460 q 603 431 586 439 q 614 417 607 429 q 619 400 617 410 q 625 385 622 390 q 634 347 635 368 q 633 319 633 325 q 632 299 633 311 q 632 278 631 288 q 635 274 632 276 q 640 269 638 271 q 646 271 642 268 q 650 276 650 274 l 650 279 q 658 294 650 286 q 671 306 664 299 q 681 317 678 313 q 694 324 685 321 q 710 331 700 326 q 726 340 721 336 q 743 361 735 344 q 756 386 746 368 q 771 421 765 404 q 779 468 776 433 l 779 475 q 782 497 779 492 q 794 518 786 506 q 807 538 803 531 q 811 549 808 539 l 832 585 l 861 639 q 869 645 865 643 q 876 649 874 647 l 899 664 q 911 669 908 669 l 915 663 q 916 655 915 660 q 915 643 917 650 q 900 583 913 631 q 885 526 897 569 l 869 463 q 868 456 868 460 q 892 428 868 439 q 928 394 919 415 q 936 357 933 383 q 942 313 942 329 l 942 304 q 939 274 942 293 l 936 239 q 933 227 935 233 q 929 213 931 221 q 926 191 928 204 q 922 169 925 178 q 915 125 915 149 q 915 97 915 101 q 917 67 915 85 q 919 42 918 50 q 925 23 921 29 q 940 14 929 17 q 947 11 942 14 q 967 6 956 10 q 986 1 978 3 l 993 1 q 1024 6 1010 1 q 1067 24 1051 14 q 1079 35 1072 26 q 1090 49 1086 43 q 1121 86 1113 74 q 1131 101 1128 94 q 1131 114 1133 107 q 1125 133 1128 122 q 1119 153 1122 143 q 1092 218 1096 206 q 1083 236 1088 226 q 1075 256 1079 246 l 1064 288 q 1049 333 1053 318 q 1042 375 1044 346 q 1040 390 1040 381 q 1056 429 1040 414 q 1090 454 1064 438 l 1097 458 l 1096 461 z "},"N":{"ha":931,"x_min":69,"x_max":861,"o":"m 688 388 q 636 467 663 432 q 615 499 621 482 q 608 540 610 517 q 585 654 601 607 q 529 722 572 696 q 438 747 486 747 q 396 742 414 747 q 382 739 385 739 q 353 753 371 739 q 308 789 331 772 l 271 821 q 264 827 269 822 q 260 833 258 832 q 275 846 263 840 q 284 849 278 847 q 293 850 290 850 q 313 869 313 854 q 310 882 313 874 q 279 931 296 913 q 235 954 263 950 q 210 960 228 956 q 179 965 193 965 q 156 961 168 965 q 92 913 115 944 q 69 843 69 882 q 81 792 69 818 q 106 711 100 740 q 113 667 111 692 q 117 635 115 643 q 133 535 119 572 q 144 467 144 507 q 136 375 144 436 q 114 275 132 335 q 96 196 107 249 q 89 136 89 164 q 128 56 89 83 q 200 31 163 31 q 283 86 258 31 q 301 167 301 124 q 292 240 301 199 q 243 667 238 461 q 250 702 244 681 q 258 736 256 724 q 279 725 274 731 q 295 711 285 719 q 311 694 306 703 q 317 674 317 686 q 328 586 317 625 q 367 514 339 547 q 479 451 418 451 q 533 464 506 451 l 536 464 q 550 458 544 464 l 596 385 q 631 272 631 325 q 626 235 631 254 q 621 174 621 208 q 625 106 621 139 q 659 44 629 68 q 725 21 689 21 q 771 33 750 21 q 813 76 799 51 q 833 133 828 100 q 846 264 846 214 q 829 386 846 332 q 803 546 803 469 q 810 624 803 579 q 839 772 817 678 l 857 860 q 861 883 861 881 q 822 929 861 907 q 749 951 783 951 q 735 950 739 951 q 650 894 683 936 q 617 800 617 851 q 622 763 617 788 l 661 635 q 700 507 675 593 q 714 399 714 463 q 713 347 714 364 l 688 388 z "},"O":{"ha":757,"x_min":56,"x_max":715,"o":"m 701 564 q 715 532 715 557 q 713 494 715 519 q 707 465 710 475 q 699 449 704 457 q 692 435 693 440 q 672 385 683 418 q 674 371 671 379 q 685 328 675 363 q 690 293 688 315 q 690 289 692 292 q 689 283 689 286 q 688 253 689 263 q 681 204 686 233 q 679 185 681 197 q 676 167 678 174 q 669 140 676 161 l 667 125 q 655 100 661 113 q 643 75 649 88 q 618 53 638 64 q 576 26 588 32 q 517 7 543 14 q 489 3 503 3 q 450 8 475 3 q 424 15 439 10 q 397 22 408 19 q 357 29 365 29 q 346 28 350 29 q 307 14 336 26 q 292 8 303 13 q 271 4 281 4 q 257 7 268 4 q 228 42 235 13 q 204 92 224 57 q 190 120 196 104 q 181 142 183 136 q 158 210 161 199 q 156 230 157 218 q 150 257 154 242 l 132 343 l 131 357 q 133 378 131 364 q 135 390 135 382 q 122 431 135 408 q 104 467 117 440 l 99 471 l 72 490 q 56 525 56 503 q 58 540 56 529 q 82 579 67 564 q 110 615 108 613 q 119 646 119 626 q 114 722 119 669 q 110 738 113 731 q 107 750 108 744 q 103 775 103 763 q 111 813 103 794 q 122 833 117 822 q 133 854 128 844 l 158 894 q 172 907 163 899 q 188 919 181 915 q 225 939 200 928 q 247 947 238 944 q 264 951 257 949 q 279 958 272 954 q 292 964 286 961 q 306 967 299 965 q 321 971 314 969 q 358 972 333 972 q 371 968 358 972 l 399 964 l 410 960 q 421 956 415 958 q 431 951 426 953 l 475 938 q 478 935 478 938 q 501 917 486 926 q 524 903 515 908 q 538 888 529 899 l 550 874 q 565 853 554 867 q 581 829 576 840 q 590 814 585 821 q 599 801 594 807 q 607 789 601 797 q 615 774 613 781 q 615 758 617 767 q 618 713 618 728 q 619 664 618 681 q 628 626 619 640 q 643 611 632 619 q 647 601 643 606 l 665 583 q 690 569 661 586 l 701 564 m 553 329 q 554 343 554 335 q 547 371 554 357 l 524 406 q 507 424 518 413 q 486 443 496 436 q 474 450 482 444 q 458 456 467 456 q 450 458 453 456 q 449 467 447 461 l 457 486 q 467 501 458 489 q 488 519 475 514 l 526 540 q 538 553 532 543 q 540 567 543 563 q 522 621 531 585 q 519 641 521 628 q 514 664 517 654 q 499 704 510 679 l 488 729 l 469 761 l 458 775 l 432 796 q 411 819 415 817 q 386 833 407 824 q 367 843 381 836 q 346 863 353 850 l 342 864 q 314 861 333 864 q 307 857 311 860 q 300 853 303 854 q 261 829 275 839 q 253 824 257 828 q 249 817 250 821 l 249 814 q 253 796 249 804 q 256 790 254 793 q 260 782 258 786 l 263 763 q 262 760 261 761 q 261 757 263 758 q 256 744 258 751 q 250 729 254 736 q 244 700 244 717 q 251 663 244 683 q 253 653 253 660 q 247 633 253 643 q 235 617 247 633 q 218 592 235 617 q 221 578 214 583 q 232 568 224 576 q 243 556 238 563 q 257 542 249 549 q 265 522 265 531 q 262 510 265 517 q 257 499 258 504 l 233 478 q 224 465 228 474 q 224 449 221 456 q 229 426 224 440 q 240 399 233 410 q 247 389 242 394 q 254 381 251 383 q 260 368 257 376 q 268 356 264 360 q 288 310 286 333 q 290 292 289 303 q 292 268 292 282 q 313 192 297 218 q 331 175 319 176 l 361 167 q 385 173 372 164 q 400 194 399 182 q 408 214 403 210 q 419 218 417 219 q 423 215 421 218 q 425 210 425 213 q 428 185 428 201 q 443 135 428 154 q 450 129 446 132 q 458 126 454 126 l 468 126 q 500 135 489 126 q 508 140 504 138 q 515 143 513 142 q 529 161 524 153 q 539 175 535 169 q 546 201 546 183 q 544 227 546 215 q 542 250 542 239 l 542 256 q 544 281 542 264 l 553 329 z "},"P":{"ha":750,"x_min":63,"x_max":697,"o":"m 103 60 q 126 24 103 44 q 175 1 150 3 q 222 6 197 0 q 251 13 247 11 q 271 22 261 15 q 286 35 281 28 q 317 96 300 54 q 329 160 329 128 q 317 218 329 193 q 299 271 306 240 q 289 313 292 301 q 285 338 286 322 q 285 363 285 354 l 285 372 q 289 388 285 386 q 356 457 332 411 q 361 471 361 468 q 347 486 361 478 q 326 507 340 490 q 322 522 325 511 q 311 539 318 532 q 296 590 296 554 q 293 667 296 617 q 288 693 292 676 q 283 721 283 710 q 284 763 282 739 q 288 800 286 786 q 308 829 288 828 q 342 831 318 829 q 383 832 365 833 q 401 827 392 832 q 411 817 410 822 q 415 794 414 808 q 417 768 415 779 q 428 728 421 742 q 457 708 435 714 q 471 703 464 707 q 478 696 478 699 q 465 651 476 683 q 460 635 464 646 q 453 619 457 625 q 440 596 440 606 q 460 575 440 583 q 472 568 463 574 q 483 557 482 563 q 487 526 486 544 q 489 493 488 507 q 473 462 490 478 q 442 447 456 446 l 400 454 l 392 456 q 385 449 385 456 q 386 440 386 443 q 388 397 386 428 q 392 343 389 367 q 413 265 396 319 q 419 257 414 261 q 426 251 424 253 q 465 269 449 261 l 497 283 q 547 304 522 296 q 614 339 592 326 q 635 356 632 349 q 683 453 649 379 q 694 531 697 481 q 683 580 693 558 q 653 640 674 601 q 633 671 647 651 q 604 718 611 701 q 564 821 578 768 q 561 843 561 828 l 563 874 q 549 914 563 892 q 521 942 536 936 q 488 954 514 944 q 440 968 463 964 q 422 969 435 969 q 382 967 410 969 l 331 961 l 253 957 l 199 958 q 188 960 193 958 q 178 961 183 961 q 164 947 165 961 q 160 914 160 931 q 161 896 160 901 q 166 867 161 886 q 171 839 171 849 q 174 813 172 828 q 175 778 175 797 q 165 731 175 749 q 155 711 158 719 q 149 697 151 703 q 131 663 140 676 q 106 628 128 657 l 81 592 q 69 553 69 576 q 68 510 68 539 q 67 482 67 501 q 65 455 67 468 q 63 428 63 442 q 73 412 63 418 q 99 406 83 406 q 117 408 103 406 q 126 410 121 408 q 136 411 131 411 q 151 397 149 411 l 151 393 q 150 382 151 385 q 145 358 149 376 q 135 326 142 340 q 122 304 131 317 q 110 281 113 292 q 92 207 96 235 q 88 144 86 165 q 94 101 89 133 l 103 60 z "},"Q":{"ha":943,"x_min":69,"x_max":889,"o":"m 881 101 q 886 91 883 97 q 888 82 889 85 q 870 47 879 60 q 843 26 861 33 q 819 16 833 22 q 792 6 804 10 q 767 4 781 3 q 718 29 738 -1 q 700 49 713 39 q 682 64 688 60 q 658 83 657 85 q 628 107 647 90 q 617 113 622 113 q 604 108 613 113 q 576 88 594 101 q 542 67 557 75 q 494 53 515 57 q 471 51 486 51 q 403 65 435 51 q 335 104 371 79 q 308 119 324 111 q 285 131 293 126 q 267 140 269 139 q 228 178 242 164 q 206 213 215 193 q 189 240 199 229 q 171 274 175 263 q 144 379 149 342 q 135 401 143 394 q 111 411 126 407 q 97 417 101 413 q 89 431 92 422 l 81 457 l 71 496 q 69 510 69 501 q 122 564 69 549 q 147 574 143 569 q 150 600 150 579 q 152 651 149 629 q 168 690 156 672 q 172 710 172 697 q 171 729 171 722 q 194 814 174 783 q 213 833 201 825 l 235 853 q 292 907 283 897 q 382 960 328 951 l 411 964 q 474 971 446 971 q 533 963 494 971 q 552 959 542 963 q 568 954 563 956 q 646 875 624 942 l 658 839 q 708 703 683 756 q 718 672 715 679 q 767 628 729 639 l 768 628 q 814 601 796 622 q 832 554 832 579 q 826 528 832 539 q 794 490 818 506 q 782 456 774 471 q 788 428 788 443 q 786 402 788 413 q 783 385 785 392 l 778 358 q 771 331 772 338 q 746 289 769 304 q 726 272 740 286 q 719 264 719 271 q 725 253 719 258 l 747 225 q 785 182 769 197 q 858 121 822 150 l 881 101 m 663 439 q 667 468 667 454 l 667 474 q 660 495 667 490 q 635 500 653 500 q 596 518 608 500 q 576 556 579 543 q 572 581 572 568 q 600 629 572 615 q 608 639 604 632 q 611 651 611 646 q 578 742 607 703 q 538 794 556 768 q 516 818 526 810 q 492 828 506 826 q 468 829 483 829 q 382 811 422 829 q 324 710 324 788 q 310 614 324 665 q 299 561 304 597 l 299 557 q 314 543 299 546 q 328 537 321 542 q 338 526 336 532 q 361 457 347 504 q 371 424 367 435 l 371 418 q 366 397 371 408 q 356 383 361 386 q 336 379 349 382 q 314 376 324 376 q 290 372 296 375 q 283 360 283 369 l 286 342 q 299 317 289 333 l 356 233 q 383 215 371 215 q 408 228 396 215 q 421 244 415 233 q 431 260 426 254 q 446 272 436 268 q 449 265 447 269 q 451 257 450 261 q 468 233 458 247 q 486 208 478 218 q 494 204 488 206 q 503 204 500 203 q 528 222 521 215 q 536 240 536 229 q 526 271 536 253 q 524 281 524 276 q 501 365 501 311 l 506 421 q 512 433 507 426 q 522 442 517 439 q 557 453 538 453 q 576 450 563 453 q 589 438 581 450 q 593 427 592 433 q 594 418 594 421 q 598 399 596 413 q 604 376 600 386 q 617 360 608 367 q 631 350 626 350 q 642 365 635 350 q 653 405 647 382 q 663 439 660 428 z "},"R":{"ha":886,"x_min":69,"x_max":850,"o":"m 90 89 q 103 46 90 56 q 112 29 103 36 q 136 22 121 22 l 146 22 q 175 17 158 22 q 203 11 192 11 q 234 24 218 11 q 260 56 250 38 q 271 68 261 57 q 281 89 281 79 l 281 179 q 275 201 281 185 q 269 224 269 218 l 269 246 q 280 254 274 250 q 290 264 286 258 q 293 279 293 269 l 293 301 q 287 319 293 308 q 281 335 281 329 l 281 390 q 275 423 281 403 q 269 447 269 443 q 260 525 269 503 l 260 560 l 260 593 q 270 622 265 607 q 281 649 275 636 l 281 693 l 281 772 l 281 806 q 292 829 281 821 q 315 838 304 838 l 326 849 q 375 851 357 849 q 415 861 393 853 q 437 853 425 861 q 449 838 449 846 q 458 824 453 833 q 471 815 464 815 q 476 799 471 811 q 482 782 482 788 l 482 738 l 482 704 q 480 685 482 693 q 471 671 478 678 q 469 641 471 651 q 460 615 468 631 q 454 603 460 608 q 449 593 449 597 l 426 569 q 393 536 426 569 q 382 531 388 536 q 371 525 376 525 q 360 516 364 518 q 349 514 356 514 q 332 522 340 522 q 315 514 324 522 q 315 503 303 514 q 321 494 315 496 q 336 492 326 492 l 371 492 q 393 481 382 492 q 410 469 399 475 q 426 458 421 464 q 460 436 438 458 q 526 425 482 425 q 516 410 521 418 q 506 403 511 403 q 482 369 482 379 l 482 357 q 493 314 482 335 q 510 301 500 307 q 526 290 521 296 q 544 285 536 290 q 564 270 553 279 q 583 257 575 261 l 600 228 q 617 200 611 211 q 628 183 622 194 q 639 167 633 172 q 650 124 650 144 l 650 101 q 656 74 650 88 q 661 56 661 60 q 683 22 683 36 q 694 11 683 11 q 700 2 694 4 q 717 0 706 0 l 751 0 q 788 15 771 0 q 807 33 804 31 q 824 51 814 42 q 840 67 835 61 q 840 78 850 78 q 817 111 840 93 q 794 157 794 140 q 789 185 794 168 q 783 213 783 201 q 779 235 783 225 q 769 254 775 246 q 761 268 764 263 q 737 274 746 268 q 717 290 728 279 q 690 308 700 299 q 672 335 681 318 q 667 358 672 342 q 661 379 661 375 q 667 397 661 385 q 672 413 672 408 q 678 447 672 425 q 683 481 683 469 q 676 496 683 489 q 661 503 669 503 q 644 514 656 508 q 628 525 633 519 q 617 531 622 525 q 604 536 611 536 q 579 545 590 543 q 549 547 568 547 l 549 560 q 558 563 554 560 q 564 572 561 567 q 571 582 567 576 q 588 599 581 590 q 594 615 594 607 q 604 631 599 619 q 617 649 610 643 q 628 665 622 654 q 639 682 633 676 q 654 707 647 692 q 661 738 661 722 q 650 782 661 760 l 650 806 q 628 838 650 818 l 628 849 q 621 866 628 857 q 604 883 614 875 q 597 910 604 900 q 571 926 589 919 q 539 950 553 950 l 506 950 q 493 951 496 950 q 482 961 490 953 l 449 961 q 415 969 432 969 q 382 961 399 969 l 358 961 q 333 956 346 961 q 315 950 319 950 q 287 944 304 950 q 260 939 269 939 l 236 939 q 219 944 231 939 q 203 950 208 950 l 146 950 l 125 950 q 108 944 119 950 q 90 939 97 939 l 81 926 q 90 917 90 926 l 114 894 q 119 860 114 882 q 125 828 125 838 l 125 782 q 119 749 125 771 q 114 715 114 726 l 114 693 q 108 676 114 688 q 103 658 103 665 q 69 615 83 643 q 72 578 69 593 q 81 547 74 563 q 88 537 86 540 q 90 525 90 533 q 83 515 85 518 q 81 503 81 511 l 81 469 q 89 444 88 454 q 90 413 90 433 l 90 369 q 101 354 99 361 q 103 335 103 347 q 105 317 103 324 q 114 301 107 310 q 123 272 121 286 q 125 235 125 257 q 119 218 125 229 q 114 200 114 207 q 103 157 103 190 q 92 140 94 149 q 90 111 90 132 l 90 89 z "},"S":{"ha":760,"x_min":69,"x_max":692,"o":"m 488 393 q 484 394 486 393 q 479 393 482 394 l 472 392 q 448 372 456 385 q 443 342 440 360 q 444 328 444 338 q 442 313 444 318 q 417 271 428 285 q 386 243 406 257 q 372 235 381 239 q 357 228 363 231 q 335 217 347 224 q 308 204 322 211 q 276 196 296 199 l 261 194 q 240 203 249 194 q 223 221 235 211 q 204 238 211 231 q 199 242 201 240 q 193 247 196 244 l 178 279 q 176 283 176 281 q 175 286 176 285 q 165 299 171 292 q 158 311 160 307 q 146 326 154 326 q 133 321 140 326 q 100 310 118 308 l 93 310 q 69 293 69 310 q 74 279 69 288 q 87 256 79 268 q 97 238 94 244 q 118 175 108 211 q 143 125 126 139 q 217 101 181 101 q 239 92 226 101 q 261 64 247 83 q 304 19 288 40 q 333 4 322 4 q 346 7 338 4 q 368 13 353 10 q 392 19 383 15 q 410 32 401 24 q 433 53 418 38 q 436 58 435 56 q 439 64 438 61 q 444 73 442 69 q 449 82 446 76 q 460 111 454 101 q 483 143 474 133 q 525 185 496 158 q 544 206 532 194 q 563 222 556 217 q 571 227 565 224 q 579 235 576 231 q 591 254 583 242 q 606 272 599 267 q 627 300 618 283 q 639 321 636 317 q 653 353 647 336 q 660 388 660 371 q 657 401 660 393 q 656 414 654 410 q 654 442 658 429 q 644 467 650 454 q 636 485 639 479 l 629 497 q 624 517 626 504 q 618 536 622 529 q 579 567 604 551 q 535 582 567 572 q 507 597 521 588 q 494 608 500 601 q 476 636 476 622 q 479 650 476 639 q 482 664 482 661 q 460 681 482 679 l 446 679 q 383 668 404 674 q 367 667 378 667 q 303 699 335 667 q 297 717 297 706 q 301 742 297 721 q 309 773 303 756 q 318 800 315 790 l 325 828 q 330 833 326 831 q 336 839 333 836 q 389 863 354 863 l 404 861 q 454 839 429 857 q 469 826 461 835 q 481 813 476 817 l 508 789 q 528 769 528 769 q 538 751 531 764 q 546 729 544 739 l 547 718 q 546 699 547 707 q 543 685 544 690 q 542 672 543 676 q 540 667 542 669 q 539 664 539 665 q 551 657 543 657 q 594 647 568 653 q 619 640 606 644 q 642 635 632 636 l 657 633 q 664 637 661 633 q 668 650 667 640 q 674 681 672 664 q 689 750 686 732 q 690 769 690 757 q 690 790 689 782 q 684 819 692 804 q 664 842 676 835 q 647 850 658 844 q 626 858 636 856 l 597 871 q 585 873 593 872 q 572 876 578 874 q 563 886 567 879 q 538 925 556 906 q 519 946 529 943 q 496 950 508 949 q 472 954 483 951 q 452 958 461 956 q 436 963 443 961 q 385 969 422 964 q 348 973 374 971 q 304 979 322 975 q 281 982 288 982 q 225 971 261 982 q 183 942 206 964 q 154 897 171 928 q 146 872 146 881 q 157 799 149 851 l 167 765 q 176 732 171 754 l 176 722 q 163 697 176 708 q 135 639 142 675 q 129 582 129 600 q 135 539 129 557 q 137 529 136 536 q 142 518 138 522 q 154 513 146 514 q 173 509 161 511 q 192 507 185 507 q 211 511 201 507 q 268 524 229 518 q 286 525 274 525 q 313 524 304 525 q 331 520 322 522 q 349 517 339 518 q 363 514 354 515 q 382 508 371 513 q 392 502 388 506 q 401 496 396 499 l 432 479 q 455 464 442 474 q 476 451 468 454 q 517 428 497 444 q 526 407 526 419 q 522 392 526 400 q 518 390 521 390 q 513 390 515 389 l 488 394 l 488 393 z "},"T":{"ha":788,"x_min":42,"x_max":746,"o":"m 196 710 q 207 746 196 735 q 226 751 214 746 q 243 757 238 757 l 256 746 q 279 699 279 722 q 288 665 286 682 q 290 615 290 649 q 301 599 299 608 q 303 568 303 589 l 303 544 q 276 529 289 538 q 256 521 263 521 q 230 514 239 521 q 221 497 221 507 q 232 468 225 489 q 243 439 239 447 q 251 422 243 429 q 267 414 258 414 q 279 403 279 414 q 290 385 285 397 q 303 367 296 374 q 314 346 307 357 q 324 326 321 335 q 326 307 326 318 l 326 249 q 339 211 333 236 q 350 178 344 189 l 350 131 q 361 92 356 119 q 374 47 367 60 q 397 11 374 11 q 409 6 403 11 q 422 0 415 0 l 468 0 q 496 4 483 0 q 515 24 508 8 q 528 71 528 36 q 517 114 524 85 q 504 154 508 146 q 492 204 497 174 q 481 249 486 232 l 481 296 q 470 324 472 313 q 468 356 468 335 l 468 425 q 470 448 468 439 q 481 472 472 457 q 515 508 486 479 l 515 544 q 504 554 507 553 q 492 556 501 556 q 466 562 476 556 q 444 579 456 568 q 442 600 444 592 q 433 615 440 608 l 433 639 l 433 699 l 453 732 q 468 757 457 736 q 488 775 474 768 q 518 782 503 782 q 551 769 539 782 q 573 747 556 765 q 599 710 590 729 q 621 639 599 686 q 615 611 621 625 q 610 592 610 597 l 610 568 l 635 568 q 658 574 640 568 q 682 579 675 579 q 718 588 707 579 q 729 615 729 597 q 746 665 746 649 q 740 688 746 678 q 704 757 717 735 q 682 817 682 804 q 676 853 676 829 q 669 888 676 876 q 656 910 664 893 q 635 936 649 928 q 610 951 624 944 q 588 958 596 958 l 515 958 l 481 958 q 460 956 468 958 q 444 947 451 954 l 422 947 q 390 938 406 940 q 350 936 374 936 q 317 931 342 936 q 267 922 289 922 l 243 922 q 232 936 232 924 q 214 929 226 936 q 196 922 201 922 q 169 922 189 932 q 138 900 150 913 q 90 828 115 857 q 73 821 81 828 q 65 804 65 814 q 54 757 54 793 q 49 746 49 751 q 51 734 49 742 q 54 721 54 726 q 48 704 54 715 q 42 688 42 693 q 52 661 50 671 q 54 639 54 651 q 60 621 54 632 q 65 604 65 610 l 78 604 l 101 604 q 110 610 107 610 q 116 607 113 610 q 125 604 119 604 l 174 604 q 197 622 178 608 l 221 639 l 221 651 q 214 669 221 656 q 207 699 207 683 l 207 710 l 196 710 z "},"U":{"ha":814,"x_min":56,"x_max":758,"o":"m 93 686 q 79 675 79 686 q 66 659 76 671 q 56 638 56 647 q 58 585 56 603 q 68 550 60 567 q 74 513 68 533 q 79 488 79 492 q 92 466 86 482 q 104 450 99 450 l 117 450 q 136 443 124 450 q 156 436 149 436 q 167 424 156 424 q 173 406 167 418 q 179 388 179 393 l 179 325 q 186 299 179 319 q 193 263 193 278 q 204 213 193 225 l 204 163 q 216 134 214 146 q 218 100 218 122 q 228 84 224 93 q 242 75 233 75 q 258 62 242 68 q 279 50 274 56 q 300 48 292 50 q 318 38 308 46 q 338 35 329 38 q 354 25 346 33 q 381 13 367 25 q 396 2 388 4 q 417 0 404 0 l 467 0 l 529 0 q 547 8 538 0 q 567 25 557 15 q 590 29 579 25 q 610 40 601 33 q 629 50 619 46 q 676 84 651 61 q 704 111 700 107 q 710 129 704 121 q 729 150 717 138 q 731 181 729 171 q 742 200 733 192 q 758 279 758 250 q 754 313 758 296 l 754 350 q 742 399 754 388 q 740 413 742 410 q 729 424 739 415 q 723 449 729 429 q 717 475 717 468 l 717 499 q 722 515 717 507 q 733 529 728 524 q 742 538 739 535 l 742 586 q 750 597 750 594 q 744 603 750 600 q 729 613 739 607 l 717 613 q 699 622 708 621 q 667 624 689 624 q 656 626 657 624 q 654 638 654 628 l 654 649 l 654 675 l 654 700 q 642 761 654 738 l 642 800 q 640 831 642 821 q 629 849 638 840 q 617 899 629 886 q 567 936 592 911 l 517 936 q 485 925 507 932 q 471 920 482 924 q 454 911 460 917 q 435 909 442 911 q 429 899 429 907 q 419 881 419 889 q 429 863 419 872 l 467 786 q 483 758 474 772 q 492 738 492 744 q 504 686 504 724 q 517 638 517 675 l 517 599 q 527 576 525 590 q 529 538 529 561 l 517 538 l 517 550 l 492 550 l 492 538 q 494 496 492 513 q 504 461 496 479 q 510 443 504 456 q 517 424 517 431 q 554 361 540 376 q 579 336 567 350 q 590 319 588 328 q 592 288 592 310 l 592 263 q 590 241 592 250 q 579 225 588 232 q 557 207 572 218 q 542 188 542 196 q 533 175 536 181 q 526 166 529 169 q 517 163 522 163 q 486 144 507 158 q 454 125 475 136 q 445 122 449 125 q 439 119 442 119 q 429 125 435 119 q 394 132 411 125 q 367 150 378 139 q 349 165 356 156 q 339 188 343 174 q 329 213 335 201 q 324 249 329 224 q 318 288 318 274 q 306 320 308 304 q 304 361 304 336 l 304 450 l 304 461 l 318 461 q 351 469 336 461 q 367 488 367 478 l 367 524 q 360 564 367 540 q 354 599 354 586 l 318 599 q 285 615 307 599 q 256 649 264 631 l 256 675 q 229 711 229 696 q 224 724 224 717 q 226 735 224 728 q 229 749 229 743 l 229 811 q 235 828 235 817 q 232 851 235 838 q 229 874 229 865 q 221 904 229 885 q 215 923 217 914 q 218 936 213 932 l 218 949 q 196 961 210 956 q 171 967 182 967 q 156 961 160 967 q 125 942 138 953 q 93 911 113 931 q 81 894 83 903 q 79 874 79 886 q 86 838 79 858 q 93 811 93 817 q 104 776 99 801 q 117 738 110 749 q 131 675 117 700 l 117 675 q 93 686 104 686 z "},"V":{"ha":1032,"x_min":56,"x_max":976,"o":"m 571 247 q 562 270 567 258 q 551 296 557 282 q 542 329 547 307 q 528 369 535 354 q 507 396 521 383 l 494 413 q 493 432 492 426 q 496 463 493 443 q 500 501 500 483 q 486 539 500 529 q 440 577 458 565 q 393 585 421 589 q 381 583 389 583 q 349 589 371 583 q 310 613 317 596 l 297 640 q 274 697 283 672 q 271 710 271 703 q 271 721 271 718 q 260 807 274 774 q 251 831 256 817 q 243 854 247 846 q 201 932 224 899 q 192 939 200 936 q 181 940 185 942 l 110 924 q 79 899 86 919 q 76 892 79 896 q 72 888 74 889 q 56 832 56 861 q 86 763 56 793 q 125 683 124 728 q 168 556 125 604 q 174 536 174 551 q 172 525 174 532 q 168 514 169 518 q 167 490 167 506 q 192 400 167 440 q 263 344 217 360 q 301 336 288 336 q 329 343 319 336 q 340 347 336 347 q 354 336 347 347 q 414 186 389 271 l 422 154 q 434 117 425 146 q 454 65 443 88 q 550 6 486 -1 q 587 9 571 8 q 613 10 603 10 q 654 28 633 11 q 678 65 675 46 q 683 97 682 83 q 686 119 685 111 q 692 158 689 144 q 738 294 701 225 q 775 382 758 338 q 797 397 781 394 q 886 443 853 404 q 911 510 911 476 q 901 553 911 533 q 878 590 894 569 q 854 621 863 610 q 849 629 853 624 q 847 638 846 635 q 872 694 863 679 l 896 733 q 961 860 943 806 q 969 884 963 863 q 976 924 976 906 q 972 949 976 936 q 968 956 971 953 q 961 960 965 958 q 908 965 938 965 q 825 949 863 965 q 761 895 790 933 q 733 817 732 857 q 736 757 736 778 q 731 699 736 725 q 719 671 726 678 q 690 664 711 664 l 644 664 q 615 657 624 663 q 601 632 607 651 q 597 564 594 600 q 631 478 597 506 q 653 426 653 457 q 650 403 653 411 l 613 293 l 600 258 l 583 214 l 571 247 z "},"W":{"ha":1397,"x_min":69,"x_max":1328,"o":"m 972 222 q 954 310 954 264 q 958 357 954 335 q 963 393 963 376 q 926 453 963 433 q 924 461 924 453 q 928 497 928 481 q 917 540 928 519 q 852 591 896 578 q 760 601 808 604 q 710 590 732 600 q 650 558 689 581 q 618 508 618 542 l 619 497 q 618 492 621 496 q 613 486 615 488 q 569 428 578 471 q 578 375 568 400 q 582 354 582 365 q 569 319 582 336 l 503 218 l 486 192 q 484 187 485 190 q 482 182 483 183 q 476 192 481 183 q 393 340 446 286 q 389 365 382 351 q 407 433 407 407 q 378 516 407 488 q 296 542 349 544 q 285 547 290 542 q 274 606 274 578 q 278 643 274 624 q 289 744 289 696 q 276 851 289 797 q 261 899 268 882 q 239 926 254 915 q 182 946 207 946 q 115 914 151 946 q 78 853 88 888 q 69 769 69 818 q 114 668 69 725 q 148 613 135 636 q 168 564 161 590 q 169 554 169 561 q 161 540 169 546 q 140 507 144 526 q 136 460 135 488 q 146 422 136 439 q 174 388 156 406 q 213 351 196 364 q 254 338 231 339 q 293 306 278 336 q 306 292 301 294 q 354 219 338 268 q 363 187 360 206 q 368 160 367 168 q 389 81 374 108 q 439 35 410 44 q 493 25 471 25 q 576 60 542 25 q 657 185 629 111 q 710 329 674 235 l 743 407 q 767 449 760 435 q 787 432 774 443 q 808 410 800 421 q 851 264 842 358 q 869 113 858 213 q 915 32 878 63 q 979 7 944 7 q 1015 14 994 7 q 1126 132 1108 50 q 1140 208 1131 147 q 1151 281 1143 233 l 1157 314 q 1170 353 1161 338 q 1200 376 1179 368 q 1254 415 1238 392 q 1289 494 1279 453 q 1294 543 1294 528 q 1246 633 1294 603 q 1240 647 1239 642 l 1260 696 q 1314 829 1296 790 q 1328 892 1328 864 q 1324 924 1328 907 q 1314 950 1319 946 q 1276 966 1289 961 q 1249 969 1263 971 q 1125 901 1178 964 q 1103 838 1103 875 q 1108 788 1103 821 l 1114 732 q 1119 675 1117 711 l 1119 674 q 1115 663 1119 669 q 1107 651 1110 656 q 1101 649 1106 650 q 1093 646 1097 649 q 1031 525 1044 607 q 1029 504 1029 518 q 1043 436 1029 481 q 1057 379 1056 394 q 1060 338 1060 351 q 1054 301 1060 318 q 993 176 1031 246 l 972 222 z "},"X":{"ha":882,"x_min":69,"x_max":813,"o":"m 175 638 q 153 633 153 638 q 150 614 150 628 q 151 600 150 604 q 207 561 167 574 q 315 521 282 538 q 330 514 319 518 q 347 503 340 510 q 353 489 353 497 q 347 472 353 482 q 311 438 333 449 q 278 417 293 426 q 250 401 263 408 q 189 365 242 397 q 177 355 182 363 q 171 344 172 347 l 196 336 q 214 332 214 332 q 213 317 214 329 q 206 296 211 306 q 196 286 204 293 q 185 275 188 279 q 160 228 178 265 q 138 190 154 217 q 114 139 121 163 q 111 121 111 128 q 117 85 111 106 q 125 56 122 64 q 169 24 132 21 q 233 21 192 24 q 260 26 244 19 q 279 44 276 32 q 285 64 281 51 q 293 85 290 76 q 311 160 307 135 q 311 183 313 169 q 310 206 310 197 q 311 219 310 215 q 329 274 315 236 q 333 285 331 279 q 339 300 336 292 q 406 353 353 346 q 436 368 421 356 q 454 386 449 376 l 474 364 q 492 340 481 356 q 515 314 504 324 q 544 292 525 306 q 576 267 572 271 q 611 178 611 231 q 597 96 611 151 q 596 83 596 92 q 611 37 596 60 q 646 11 626 14 q 663 7 653 10 q 678 4 672 4 l 721 3 q 763 8 746 3 q 793 31 781 14 q 808 71 806 49 q 811 88 810 78 q 813 113 813 99 q 808 136 813 126 q 790 165 801 150 q 774 186 778 181 q 754 211 760 203 q 732 269 732 242 q 746 314 732 292 q 751 332 751 324 q 733 354 751 346 q 715 358 728 356 q 693 364 703 360 q 626 400 671 375 q 613 407 624 401 q 596 419 603 413 q 585 434 589 425 q 579 446 581 443 q 567 460 574 453 q 560 469 560 467 q 592 508 576 501 q 672 536 629 529 q 703 549 694 539 q 711 579 713 560 l 706 626 q 713 660 703 646 q 735 685 722 674 q 753 700 747 696 q 790 754 782 724 q 800 832 799 785 q 801 863 801 844 q 803 892 801 881 q 792 925 806 904 q 764 951 779 946 q 708 964 739 958 q 667 971 678 969 l 665 971 q 652 965 660 971 q 643 956 644 960 q 621 864 631 915 q 611 825 614 835 q 586 726 599 763 q 549 647 574 678 q 486 588 528 621 l 460 564 q 454 565 458 563 q 372 643 415 604 q 344 665 363 651 q 314 690 325 679 q 264 758 294 711 q 244 801 249 782 l 244 807 q 247 822 244 813 q 247 835 249 831 l 239 878 q 232 917 233 907 q 217 942 229 932 q 189 953 206 953 q 174 950 185 953 q 122 933 131 936 q 92 913 99 925 q 72 833 79 874 q 69 794 69 808 q 90 726 69 753 q 151 665 113 699 q 174 651 160 658 q 196 638 188 643 l 175 638 z "},"Y":{"ha":926,"x_min":69,"x_max":857,"o":"m 565 696 q 525 688 542 696 q 497 660 508 681 q 489 622 489 644 q 492 592 489 610 q 497 567 496 575 q 501 551 499 564 q 501 533 504 539 q 451 486 478 504 q 431 476 439 476 q 414 485 422 476 q 380 521 400 501 q 351 549 360 540 q 340 560 347 553 q 333 569 333 567 q 349 590 333 575 q 360 601 358 597 q 369 618 363 606 q 374 636 376 631 q 362 657 371 640 q 342 685 353 674 q 321 701 332 696 q 285 728 297 714 q 268 768 272 743 q 203 917 253 839 q 178 939 192 933 q 151 944 167 944 q 101 924 125 944 q 69 861 69 894 q 75 836 69 847 q 100 790 83 814 q 121 758 117 765 q 151 714 140 728 l 171 685 q 176 671 176 679 q 165 649 176 663 q 150 613 150 628 q 157 590 150 599 q 170 572 161 585 q 190 549 179 558 q 214 536 200 540 q 226 528 222 533 q 233 513 229 524 q 244 489 236 507 q 263 458 251 471 q 318 413 272 449 q 343 393 326 407 q 358 381 346 390 q 374 360 369 371 q 392 247 392 296 q 386 132 392 210 q 399 60 383 88 q 453 10 414 32 q 476 4 464 4 q 510 14 494 4 q 568 115 568 51 q 561 161 568 133 l 538 268 l 528 318 q 524 360 522 346 q 536 399 526 381 q 558 433 546 417 q 576 458 571 450 q 594 472 583 469 q 615 476 606 475 q 629 476 625 476 q 689 515 669 483 q 706 588 708 547 q 704 607 704 594 q 706 619 704 615 q 740 681 718 646 q 754 706 744 688 q 776 738 764 725 l 799 761 q 819 783 817 779 q 838 808 824 789 q 856 844 853 826 q 857 861 857 850 q 821 940 857 901 q 757 967 794 967 q 725 961 740 967 q 661 878 676 944 q 650 822 653 844 q 639 765 644 783 q 612 717 633 736 q 565 696 590 697 z "},"Z":{"ha":1021,"x_min":69,"x_max":951,"o":"m 219 221 q 198 236 211 228 q 178 251 185 244 q 163 263 171 261 q 139 264 154 265 q 131 263 136 264 q 122 261 126 261 q 79 222 90 261 q 75 181 75 201 q 93 99 75 136 q 213 19 129 21 q 249 24 228 19 q 279 31 269 29 q 464 61 403 56 q 511 64 494 64 q 563 58 539 64 q 649 31 610 44 q 761 7 710 13 q 797 4 786 4 q 906 39 860 4 q 951 121 951 71 q 950 136 951 131 q 881 213 939 193 q 804 225 842 225 q 693 200 753 225 q 496 153 589 154 q 424 167 456 153 q 346 211 393 182 l 346 214 q 367 249 353 224 q 394 292 382 274 q 450 360 419 326 q 481 375 461 375 q 493 374 489 375 q 515 371 500 371 q 578 385 549 371 q 643 429 607 400 q 678 500 678 456 q 647 567 678 542 l 622 592 q 615 601 615 599 q 621 611 615 603 q 658 665 658 665 q 669 677 661 668 q 686 689 678 686 q 781 722 733 711 q 865 807 840 739 q 872 849 872 822 q 863 900 872 876 q 838 929 856 918 q 747 963 803 953 l 631 969 q 576 967 603 971 q 524 958 550 964 q 486 950 499 953 l 457 943 q 390 931 417 931 q 278 946 335 931 q 172 963 213 964 q 122 952 140 958 q 90 929 104 946 q 69 878 69 900 l 71 867 q 85 827 75 846 q 114 782 96 808 q 168 742 135 749 q 189 740 175 740 q 228 744 210 740 q 375 794 282 756 q 440 815 415 808 q 493 822 465 822 q 515 819 500 822 q 538 815 529 815 q 591 804 564 814 q 625 792 618 794 q 633 788 632 790 q 632 779 635 786 q 615 735 628 767 q 589 676 601 703 q 525 635 571 633 l 510 636 q 483 633 497 636 q 461 629 468 631 q 340 547 385 611 q 331 524 331 533 q 339 500 331 515 q 379 450 368 461 q 383 445 381 449 q 384 438 385 442 q 381 431 383 435 l 368 403 q 356 375 358 379 q 342 349 351 368 q 323 316 333 331 q 300 292 313 301 q 236 208 265 264 l 219 221 z "},"a":{"ha":833,"x_min":0,"x_max":0,"o":""},"b":{"ha":833,"x_min":0,"x_max":0,"o":""},"c":{"ha":833,"x_min":0,"x_max":0,"o":""},"d":{"ha":833,"x_min":0,"x_max":0,"o":""},"e":{"ha":833,"x_min":0,"x_max":0,"o":""},"f":{"ha":833,"x_min":0,"x_max":0,"o":""},"g":{"ha":833,"x_min":0,"x_max":0,"o":""},"h":{"ha":833,"x_min":0,"x_max":0,"o":""},"i":{"ha":833,"x_min":0,"x_max":0,"o":""},"j":{"ha":833,"x_min":0,"x_max":0,"o":""},"k":{"ha":833,"x_min":0,"x_max":0,"o":""},"l":{"ha":833,"x_min":0,"x_max":0,"o":""},"m":{"ha":833,"x_min":0,"x_max":0,"o":""},"n":{"ha":833,"x_min":0,"x_max":0,"o":""},"o":{"ha":833,"x_min":0,"x_max":0,"o":""},"p":{"ha":833,"x_min":0,"x_max":0,"o":""},"q":{"ha":833,"x_min":0,"x_max":0,"o":""},"r":{"ha":833,"x_min":0,"x_max":0,"o":""},"s":{"ha":833,"x_min":0,"x_max":0,"o":""},"t":{"ha":833,"x_min":0,"x_max":0,"o":""},"u":{"ha":833,"x_min":0,"x_max":0,"o":""},"v":{"ha":833,"x_min":0,"x_max":0,"o":""},"w":{"ha":833,"x_min":0,"x_max":0,"o":""},"x":{"ha":833,"x_min":0,"x_max":0,"o":""},"y":{"ha":833,"x_min":0,"x_max":0,"o":""},"z":{"ha":833,"x_min":0,"x_max":0,"o":""},".":{"ha":458,"x_min":46,"x_max":413,"o":"m 333 208 q 319 225 326 221 q 301 231 313 229 q 274 239 285 233 q 243 224 257 238 l 185 224 q 153 208 165 224 q 142 179 142 193 q 126 167 129 168 q 111 165 122 165 q 82 179 96 179 l 65 165 l 65 135 q 65 119 81 121 q 46 88 46 100 q 51 75 46 81 q 58 53 51 68 q 65 31 65 39 q 110 10 89 10 q 125 15 119 10 q 148 23 133 15 q 169 31 163 31 q 195 33 185 31 q 215 46 206 36 q 229 53 222 46 q 243 61 236 61 q 317 46 274 46 q 338 33 328 36 q 363 31 347 31 q 385 33 378 31 q 393 46 393 36 q 407 75 393 60 q 413 90 413 81 q 410 106 413 96 q 407 119 407 115 q 402 158 407 146 q 376 179 397 169 q 363 193 363 181 q 349 195 351 193 q 347 208 347 197 l 333 208 z "},",":{"ha":532,"x_min":56,"x_max":476,"o":"m 289 128 q 276 119 281 126 q 271 108 272 111 q 246 85 260 93 q 219 63 236 79 q 206 34 210 50 q 201 13 203 18 q 193 -14 197 -6 q 178 -29 189 -22 q 169 -33 172 -31 q 163 -37 165 -36 l 119 -64 q 106 -72 115 -67 q 91 -85 97 -78 q 82 -100 85 -92 q 68 -137 75 -121 q 57 -165 61 -153 l 56 -169 q 65 -181 56 -176 l 75 -178 q 79 -176 78 -178 q 165 -149 99 -171 q 197 -133 175 -146 q 214 -125 201 -132 q 240 -118 226 -118 l 293 -117 l 340 -117 l 353 -118 q 365 -114 361 -118 q 406 -81 375 -108 q 429 -57 429 -57 q 441 -47 433 -53 q 453 -33 449 -40 q 474 25 465 -12 q 476 44 476 39 l 471 69 q 464 86 465 81 l 464 111 l 467 117 q 474 129 475 125 q 470 136 474 133 q 461 139 467 139 q 420 138 438 138 q 390 139 403 139 q 364 138 381 139 q 335 135 347 136 q 313 133 322 135 q 297 131 304 132 l 289 128 z "},"-":{"ha":728,"x_min":122,"x_max":621,"o":"m 619 460 q 601 483 617 465 q 572 501 592 490 q 558 509 567 504 q 542 514 549 514 l 490 513 q 435 514 453 513 q 374 535 399 514 q 353 546 363 544 q 342 542 349 546 q 332 538 336 539 q 315 533 328 536 q 290 522 301 529 q 279 518 283 518 q 261 533 272 518 q 226 578 244 561 q 204 592 218 585 q 183 603 190 599 q 163 613 169 613 q 144 597 156 613 q 140 594 142 594 q 130 576 138 589 q 122 553 122 563 q 133 496 122 535 q 143 463 138 485 q 151 420 147 444 q 156 383 154 396 q 160 357 157 364 q 176 350 163 350 q 217 361 204 353 q 236 378 226 367 q 251 394 246 389 q 261 396 258 399 q 297 364 275 386 q 344 340 324 340 q 386 358 361 340 q 411 369 397 367 q 433 370 419 369 q 465 374 447 371 q 554 388 528 385 q 602 411 583 392 q 619 460 621 431 z "},"&":{"ha":833,"x_min":92,"x_max":753,"o":"m 550 968 q 574 971 564 971 q 618 963 597 971 q 639 950 626 958 q 647 947 643 949 q 656 944 651 946 q 685 928 663 939 q 719 900 707 908 q 728 891 724 896 q 731 879 732 886 q 733 872 731 878 q 740 858 739 867 q 743 844 742 849 l 747 819 q 749 796 747 807 q 751 774 751 785 q 752 761 751 769 q 751 749 753 753 q 743 722 750 735 q 738 703 740 714 q 732 682 735 693 q 730 674 732 678 q 728 668 728 669 q 721 621 721 643 q 715 601 721 615 q 707 576 714 589 q 688 546 704 563 q 663 533 682 539 q 642 529 646 529 q 610 521 628 524 q 583 513 597 518 q 563 506 568 507 l 543 494 q 537 489 539 493 q 536 481 535 485 q 539 463 539 475 q 540 444 539 451 q 551 406 543 421 l 568 365 l 572 357 q 578 346 576 353 l 581 340 l 583 326 l 583 321 l 592 288 q 596 283 596 283 q 606 276 597 275 l 619 281 q 644 286 628 283 q 665 294 651 288 l 686 303 l 689 303 q 705 309 696 303 q 719 318 714 315 l 726 321 l 731 322 q 740 308 740 322 q 738 294 740 300 q 724 261 732 283 q 710 243 719 251 q 699 232 701 235 q 689 219 696 226 q 688 217 688 218 q 685 214 688 215 q 672 205 678 210 q 660 196 667 200 q 648 190 653 194 q 643 179 643 185 l 643 175 q 656 154 643 163 q 681 126 672 140 q 688 101 686 115 q 692 82 690 88 l 692 76 q 683 40 692 65 l 665 24 q 650 7 660 14 q 629 0 640 -3 l 629 -1 l 610 4 q 608 7 608 4 q 600 24 603 14 q 585 64 590 43 l 585 65 q 582 86 582 79 l 579 103 l 567 143 q 564 145 565 144 q 561 147 563 146 q 558 151 558 150 q 553 154 557 158 q 547 149 550 153 q 540 146 543 146 q 516 134 528 144 q 500 119 504 124 q 473 101 489 113 q 447 85 457 90 q 424 64 432 76 q 407 51 417 58 q 390 40 397 43 q 360 18 376 38 q 355 13 357 15 q 350 10 353 11 q 322 4 338 -3 q 290 17 294 15 q 271 36 276 28 q 246 79 263 49 q 233 100 240 88 q 221 119 226 113 q 204 132 218 126 q 194 139 199 138 q 188 142 192 140 q 181 143 183 143 q 153 153 163 144 q 131 186 139 165 q 125 207 128 190 l 111 267 q 108 281 108 274 q 106 297 107 289 l 97 347 l 97 365 l 94 399 q 92 417 92 413 q 106 457 92 436 q 122 482 118 478 q 132 500 126 489 q 143 518 138 511 q 152 533 147 526 q 164 542 157 539 q 181 547 168 544 q 215 554 196 557 q 234 552 222 553 q 251 550 246 551 q 269 546 268 546 q 313 556 289 546 q 350 565 332 565 l 364 565 q 369 567 369 565 q 368 572 369 569 l 360 583 q 342 613 347 600 q 301 657 300 658 q 285 673 292 665 q 274 686 279 681 q 260 720 264 700 q 256 744 257 740 l 254 750 q 251 776 251 758 q 264 833 251 807 q 275 856 268 847 q 290 868 285 865 l 317 875 q 344 890 336 878 q 363 910 350 896 q 390 931 375 924 q 406 941 394 933 q 428 953 418 949 l 439 956 q 446 958 443 957 q 451 961 449 960 q 468 964 463 964 q 493 963 476 963 q 510 964 504 963 q 517 965 514 965 q 522 964 519 964 l 550 968 m 597 821 q 582 818 588 821 q 564 815 568 818 l 532 803 q 513 797 526 801 q 488 794 499 792 l 460 793 l 439 789 q 424 775 431 785 q 415 761 418 765 q 414 754 414 760 q 443 696 425 721 q 450 681 450 686 q 464 649 451 665 l 483 628 l 499 617 q 521 615 514 617 l 529 617 q 558 635 546 628 q 576 645 568 640 q 590 654 585 650 q 592 664 592 656 q 590 670 592 667 q 588 676 589 674 q 585 696 585 690 q 589 717 585 707 l 593 729 q 603 754 601 744 q 608 778 601 750 l 618 814 q 619 819 619 817 q 615 821 618 821 l 597 821 m 356 415 q 311 418 338 421 q 300 417 304 418 l 271 411 q 261 397 258 408 q 265 385 261 392 q 269 375 267 381 q 272 363 271 369 l 279 350 q 285 337 282 342 q 289 328 288 332 l 293 318 q 300 306 299 310 q 308 267 306 288 q 314 249 311 257 q 318 233 317 240 q 320 227 318 231 q 324 224 322 224 l 331 222 q 344 228 340 222 q 363 244 360 243 q 397 265 385 254 q 419 272 411 271 q 442 281 436 274 q 446 303 447 288 l 446 304 l 446 307 q 440 318 446 313 q 433 322 436 321 q 428 322 429 322 q 415 327 422 325 q 403 332 408 329 q 378 353 390 340 q 374 358 375 354 q 374 365 372 361 q 386 383 379 378 l 401 397 q 400 410 411 406 q 396 411 399 411 l 356 415 z "}}}
